<mxfile host="app.diagrams.net" modified="2022-05-19T15:59:15.984Z" agent="5.0 (Windows NT 10.0; Win64; x64) AppleWebKit/537.36 (KHTML, like Gecko) Chrome/101.0.4951.54 Safari/537.36" etag="rYXJ7A1YM9IiihGTGheR" version="18.0.8" type="github">
  <diagram id="G7HoqHJIW2NOR0Raah0R" name="Page-1">
    <mxGraphModel dx="2198" dy="1378" grid="1" gridSize="10" guides="1" tooltips="1" connect="1" arrows="1" fold="1" page="1" pageScale="1" pageWidth="827" pageHeight="1169" math="0" shadow="0">
      <root>
        <mxCell id="0" />
        <mxCell id="1" parent="0" />
        <mxCell id="OPaiP-de2L1TEPlxZUKY-275" value="" style="rounded=0;whiteSpace=wrap;html=1;shadow=0;glass=0;sketch=0;fontSize=16;" vertex="1" parent="1">
          <mxGeometry x="60" y="50" width="730" height="490" as="geometry" />
        </mxCell>
        <mxCell id="OPaiP-de2L1TEPlxZUKY-276" value="业务层" style="rounded=1;whiteSpace=wrap;html=1;shadow=0;glass=0;sketch=0;fontSize=16;fillColor=#CCFFCC;" vertex="1" parent="1">
          <mxGeometry x="80" y="60" width="30" height="470" as="geometry" />
        </mxCell>
        <mxCell id="OPaiP-de2L1TEPlxZUKY-277" value="" style="rounded=0;whiteSpace=wrap;html=1;shadow=0;glass=0;sketch=0;fontSize=16;" vertex="1" parent="1">
          <mxGeometry x="135" y="60" width="640" height="220" as="geometry" />
        </mxCell>
        <mxCell id="OPaiP-de2L1TEPlxZUKY-279" value="业务模块" style="text;strokeColor=none;fillColor=none;align=left;verticalAlign=middle;spacingLeft=4;spacingRight=4;overflow=hidden;points=[[0,0.5],[1,0.5]];portConstraint=eastwest;rotatable=0;shadow=0;glass=0;sketch=0;fontSize=16;" vertex="1" parent="1">
          <mxGeometry x="130" y="60" width="80" height="30" as="geometry" />
        </mxCell>
        <mxCell id="OPaiP-de2L1TEPlxZUKY-280" value="业务模块接口" style="rounded=0;whiteSpace=wrap;html=1;shadow=0;glass=0;sketch=0;fontSize=16;fillColor=#CCCCCC;" vertex="1" parent="1">
          <mxGeometry x="150" y="90" width="610" height="40" as="geometry" />
        </mxCell>
        <mxCell id="OPaiP-de2L1TEPlxZUKY-281" value="交大树洞app系统架构图" style="text;strokeColor=none;fillColor=none;align=left;verticalAlign=middle;spacingLeft=4;spacingRight=4;overflow=hidden;points=[[0,0.5],[1,0.5]];portConstraint=eastwest;rotatable=0;shadow=0;glass=0;sketch=0;fontSize=16;fontStyle=1" vertex="1" parent="1">
          <mxGeometry x="332" y="10" width="186" height="30" as="geometry" />
        </mxCell>
        <mxCell id="OPaiP-de2L1TEPlxZUKY-282" value="主模块" style="rounded=0;whiteSpace=wrap;html=1;shadow=0;glass=0;sketch=0;fontSize=16;fillColor=#CCFFCC;" vertex="1" parent="1">
          <mxGeometry x="150" y="155" width="110" height="100" as="geometry" />
        </mxCell>
        <mxCell id="OPaiP-de2L1TEPlxZUKY-283" value="注册登录模块" style="rounded=0;whiteSpace=wrap;html=1;shadow=0;glass=0;sketch=0;fontSize=16;fillColor=#CCFFCC;" vertex="1" parent="1">
          <mxGeometry x="270" y="155" width="110" height="100" as="geometry" />
        </mxCell>
        <mxCell id="OPaiP-de2L1TEPlxZUKY-284" value="基础发帖模块" style="rounded=0;whiteSpace=wrap;html=1;shadow=0;glass=0;sketch=0;fontSize=16;fillColor=#CCFFCC;" vertex="1" parent="1">
          <mxGeometry x="390" y="155" width="110" height="100" as="geometry" />
        </mxCell>
        <mxCell id="OPaiP-de2L1TEPlxZUKY-285" value="消息模块" style="rounded=0;whiteSpace=wrap;html=1;shadow=0;glass=0;sketch=0;fontSize=16;fillColor=#CCFFCC;" vertex="1" parent="1">
          <mxGeometry x="518" y="155" width="112" height="100" as="geometry" />
        </mxCell>
        <mxCell id="OPaiP-de2L1TEPlxZUKY-286" value="用户中心模块" style="rounded=0;whiteSpace=wrap;html=1;shadow=0;glass=0;sketch=0;fontSize=16;fillColor=#CCFFCC;" vertex="1" parent="1">
          <mxGeometry x="645" y="155" width="115" height="100" as="geometry" />
        </mxCell>
        <mxCell id="OPaiP-de2L1TEPlxZUKY-287" value="&lt;span style=&quot;color: rgba(0, 0, 0, 0); font-family: monospace; font-size: 0px; text-align: start;&quot;&gt;%3CmxGraphModel%3E%3Croot%3E%3CmxCell%20id%3D%220%22%2F%3E%3CmxCell%20id%3D%221%22%20parent%3D%220%22%2F%3E%3CmxCell%20id%3D%222%22%20value%3D%22%E4%B8%BB%E6%A8%A1%E5%9D%97%22%20style%3D%22rounded%3D0%3BwhiteSpace%3Dwrap%3Bhtml%3D1%3Bshadow%3D0%3Bglass%3D0%3Bsketch%3D0%3BfontSize%3D16%3BfillColor%3D%23CCFFCC%3B%22%20vertex%3D%221%22%20parent%3D%221%22%3E%3CmxGeometry%20x%3D%22150%22%20y%3D%22160%22%20width%3D%22100%22%20height%3D%2290%22%20as%3D%22geometry%22%2F%3E%3C%2FmxCell%3E%3C%2Froot%3E%3C%2FmxGraphModel%3E&lt;/span&gt;" style="rounded=0;whiteSpace=wrap;html=1;shadow=0;glass=0;sketch=0;fontSize=16;" vertex="1" parent="1">
          <mxGeometry x="135" y="300" width="640" height="220" as="geometry" />
        </mxCell>
        <mxCell id="OPaiP-de2L1TEPlxZUKY-288" value="业务数据" style="text;strokeColor=none;fillColor=none;align=left;verticalAlign=middle;spacingLeft=4;spacingRight=4;overflow=hidden;points=[[0,0.5],[1,0.5]];portConstraint=eastwest;rotatable=0;shadow=0;glass=0;sketch=0;fontSize=16;" vertex="1" parent="1">
          <mxGeometry x="135" y="300" width="80" height="30" as="geometry" />
        </mxCell>
        <mxCell id="OPaiP-de2L1TEPlxZUKY-289" value="数据层接口" style="rounded=0;whiteSpace=wrap;html=1;shadow=0;glass=0;sketch=0;fontSize=16;fillColor=#CCCCCC;" vertex="1" parent="1">
          <mxGeometry x="150" y="330" width="610" height="40" as="geometry" />
        </mxCell>
        <mxCell id="OPaiP-de2L1TEPlxZUKY-290" value="用户数据" style="rounded=0;whiteSpace=wrap;html=1;shadow=0;glass=0;sketch=0;fontSize=16;fillColor=#CCFFCC;" vertex="1" parent="1">
          <mxGeometry x="150" y="390" width="110" height="100" as="geometry" />
        </mxCell>
        <mxCell id="OPaiP-de2L1TEPlxZUKY-291" value="贴子数据" style="rounded=0;whiteSpace=wrap;html=1;shadow=0;glass=0;sketch=0;fontSize=16;fillColor=#CCFFCC;" vertex="1" parent="1">
          <mxGeometry x="270" y="390" width="110" height="100" as="geometry" />
        </mxCell>
        <mxCell id="OPaiP-de2L1TEPlxZUKY-292" value="消息数据" style="rounded=0;whiteSpace=wrap;html=1;shadow=0;glass=0;sketch=0;fontSize=16;fillColor=#CCFFCC;" vertex="1" parent="1">
          <mxGeometry x="390" y="390" width="110" height="100" as="geometry" />
        </mxCell>
        <mxCell id="OPaiP-de2L1TEPlxZUKY-293" value="APP配置数据（软硬件）" style="rounded=0;whiteSpace=wrap;html=1;shadow=0;glass=0;sketch=0;fontSize=16;fillColor=#CCFFCC;" vertex="1" parent="1">
          <mxGeometry x="513" y="390" width="122" height="100" as="geometry" />
        </mxCell>
        <mxCell id="OPaiP-de2L1TEPlxZUKY-294" value="个人数据" style="rounded=0;whiteSpace=wrap;html=1;shadow=0;glass=0;sketch=0;fontSize=16;fillColor=#CCFFCC;" vertex="1" parent="1">
          <mxGeometry x="647.5" y="390" width="110" height="100" as="geometry" />
        </mxCell>
        <mxCell id="OPaiP-de2L1TEPlxZUKY-295" value="" style="rounded=0;whiteSpace=wrap;html=1;shadow=0;glass=0;sketch=0;fontSize=16;" vertex="1" parent="1">
          <mxGeometry x="60" y="560" width="730" height="210" as="geometry" />
        </mxCell>
        <mxCell id="OPaiP-de2L1TEPlxZUKY-296" value="工具层" style="rounded=1;whiteSpace=wrap;html=1;shadow=0;glass=0;sketch=0;fontSize=16;fillColor=#CCFFCC;" vertex="1" parent="1">
          <mxGeometry x="80" y="570" width="30" height="180" as="geometry" />
        </mxCell>
        <mxCell id="OPaiP-de2L1TEPlxZUKY-297" value="工具层接口" style="rounded=0;whiteSpace=wrap;html=1;shadow=0;glass=0;sketch=0;fontSize=16;fillColor=#CCCCCC;" vertex="1" parent="1">
          <mxGeometry x="147.5" y="580" width="610" height="40" as="geometry" />
        </mxCell>
        <mxCell id="OPaiP-de2L1TEPlxZUKY-298" value="日志" style="rounded=0;whiteSpace=wrap;html=1;shadow=0;glass=0;sketch=0;fontSize=16;fillColor=#CCFFCC;" vertex="1" parent="1">
          <mxGeometry x="150" y="640" width="110" height="40" as="geometry" />
        </mxCell>
        <mxCell id="OPaiP-de2L1TEPlxZUKY-299" value="缓存" style="rounded=0;whiteSpace=wrap;html=1;shadow=0;glass=0;sketch=0;fontSize=16;fillColor=#CCFFCC;" vertex="1" parent="1">
          <mxGeometry x="304" y="640" width="110" height="40" as="geometry" />
        </mxCell>
        <mxCell id="OPaiP-de2L1TEPlxZUKY-300" value="异常诊断工具" style="rounded=0;whiteSpace=wrap;html=1;shadow=0;glass=0;sketch=0;fontSize=16;fillColor=#CCFFCC;" vertex="1" parent="1">
          <mxGeometry x="445" y="640" width="110" height="40" as="geometry" />
        </mxCell>
        <mxCell id="OPaiP-de2L1TEPlxZUKY-301" value="图片库" style="rounded=0;whiteSpace=wrap;html=1;shadow=0;glass=0;sketch=0;fontSize=16;fillColor=#CCFFCC;" vertex="1" parent="1">
          <mxGeometry x="150" y="700" width="110" height="40" as="geometry" />
        </mxCell>
        <mxCell id="OPaiP-de2L1TEPlxZUKY-303" value="数据库" style="rounded=0;whiteSpace=wrap;html=1;shadow=0;glass=0;sketch=0;fontSize=16;fillColor=#CCFFCC;" vertex="1" parent="1">
          <mxGeometry x="304" y="700" width="110" height="40" as="geometry" />
        </mxCell>
        <mxCell id="OPaiP-de2L1TEPlxZUKY-304" value="文件IO处理" style="rounded=0;whiteSpace=wrap;html=1;shadow=0;glass=0;sketch=0;fontSize=16;fillColor=#CCFFCC;" vertex="1" parent="1">
          <mxGeometry x="445" y="700" width="110" height="40" as="geometry" />
        </mxCell>
        <mxCell id="OPaiP-de2L1TEPlxZUKY-305" value="网络" style="rounded=0;whiteSpace=wrap;html=1;shadow=0;glass=0;sketch=0;fontSize=16;fillColor=#CCFFCC;" vertex="1" parent="1">
          <mxGeometry x="585" y="700" width="110" height="40" as="geometry" />
        </mxCell>
        <mxCell id="OPaiP-de2L1TEPlxZUKY-306" style="edgeStyle=orthogonalEdgeStyle;rounded=0;orthogonalLoop=1;jettySize=auto;html=1;exitX=0.5;exitY=1;exitDx=0;exitDy=0;fontSize=16;" edge="1" parent="1" source="OPaiP-de2L1TEPlxZUKY-298" target="OPaiP-de2L1TEPlxZUKY-298">
          <mxGeometry relative="1" as="geometry" />
        </mxCell>
        <mxCell id="OPaiP-de2L1TEPlxZUKY-307" value="" style="rounded=0;whiteSpace=wrap;html=1;shadow=0;glass=0;sketch=0;fontSize=16;" vertex="1" parent="1">
          <mxGeometry x="60" y="780" width="730" height="90" as="geometry" />
        </mxCell>
        <mxCell id="OPaiP-de2L1TEPlxZUKY-308" value="SDK层" style="rounded=1;whiteSpace=wrap;html=1;shadow=0;glass=0;sketch=0;fontSize=16;fillColor=#CCFFCC;" vertex="1" parent="1">
          <mxGeometry x="80" y="790" width="30" height="70" as="geometry" />
        </mxCell>
        <mxCell id="OPaiP-de2L1TEPlxZUKY-309" value="系统SDK" style="rounded=0;whiteSpace=wrap;html=1;shadow=0;glass=0;sketch=0;fontSize=16;fillColor=#CCCCCC;" vertex="1" parent="1">
          <mxGeometry x="135" y="797.5" width="640" height="55" as="geometry" />
        </mxCell>
        <mxCell id="OPaiP-de2L1TEPlxZUKY-310" value="UI" style="rounded=1;whiteSpace=wrap;html=1;shadow=0;glass=0;sketch=0;fontSize=16;" vertex="1" parent="1">
          <mxGeometry x="20" y="50" width="30" height="710" as="geometry" />
        </mxCell>
      </root>
    </mxGraphModel>
  </diagram>
</mxfile>
